# xmcd
#
# Track frame offsets: 
#        150
#        11069
#        22316
#        35904
#        47223
#        58392
#        69107
#        81001
#        94491
#        104954
#        115454
#        127491
#        139092
#        149538
#        158539
#        168068
#        179019
#        191473
#        206202
#        219854
#        229290
#        240030
#        252881
#        263732
#        275227
#        285624
#        295067
#        306611
#        317218
#        332703
#
# Disc length: 4708 seconds
#
# Revision: 1
# Processed by: cddbd v1.5.2PL0 Copyright (c) Steve Scherf et al.
# Submitted via: ExactAudioCopy v1.1
#
DISCID=e412621e
DTITLE=Screamin' Jay Hawkins - I Put A Spell On You (Black Tulip)
DYEAR=1995
DGENRE=R&B
TTITLE0=I Put A Spell On You (mono)
TTITLE1=Talk About Me (mono)
TTITLE2=(She Put The) Wamee (On Me) (mono)
TTITLE3=Baptize Me In Wine (mono)
TTITLE4=Armpit #6 (mono)
TTITLE5=Little Demon (mono)
TTITLE6=I Hear Voices (mono)
TTITLE7=Not Anymore (mono)
TTITLE8=Hong Kong (mono)
TTITLE9=Darling, Please Forgive Me (mono)
TTITLE10=I Found My Way To Wine (mono)
TTITLE11=I Is (mono)
TTITLE12=There's Something Wrong With You (mono)
TTITLE13=You Made Me Love You (I Didn't Want To Do It) (mono)
TTITLE14=Do You Really Love Me (mono)
TTITLE15=Take Me Back (mono)
TTITLE16=Just Don't Care (mono)
TTITLE17=Please Try To Understand (mono)
TTITLE18=Alligator Wine (mono)
TTITLE19=Strange (mono)
TTITLE20=Yellow Coat (mono)
TTITLE21=This Is All (mono)
TTITLE22=You Ain't Foolin' Me (mono)
TTITLE23=The Whammy (mono)
TTITLE24=I Put A Spell On You (1966) (mono)
TTITLE25=All Night (mono)
TTITLE26=I'm Not Made Of Clay (mono)
TTITLE27=You're The Exception To The Rule (mono)
TTITLE28=Feast Of The Mau Mau (1969) (mono)
TTITLE29=Constipation Blues (mono)
EXTD=
EXTT0=
EXTT1=
EXTT2=
EXTT3=
EXTT4=
EXTT5=
EXTT6=
EXTT7=
EXTT8=
EXTT9=
EXTT10=
EXTT11=
EXTT12=
EXTT13=
EXTT14=
EXTT15=
EXTT16=
EXTT17=
EXTT18=
EXTT19=
EXTT20=
EXTT21=
EXTT22=
EXTT23=
EXTT24=
EXTT25=
EXTT26=
EXTT27=
EXTT28=
EXTT29=
PLAYORDER=
